# xmcd
#
# Track frame offsets:
#	150
#	19275
#	32868
#	48898
#	67074
#	78283
#	95455
#	120030
#	132401
#	149018
#	176320
#	190641
#	208919
#	218547
#
# Disc length: 3102 seconds
# Revision: 0
# Processed by: cddbd v1.5.2PL0 Copyright (c) Steve Scherf et al.
# Submitted via: dBpowerAMP V12.0
#
DISCID=c10c1c0e
DTITLE=Sugarcane Jane - Listen with Headphones
DYEAR=2012
DGENRE=Americana
TTITLE0=Good As Gold
TTITLE1=That's What I'm Talkin About
TTITLE2=I'll Fly Away
TTITLE3=Loretta Raine
TTITLE4=Inhaling
TTITLE5=Songbird
TTITLE6=Ode to Billy Joe
TTITLE7=How Long
TTITLE8=Smokin on the Dog Trot
TTITLE9=Looks Like Me and You
TTITLE10=Love Is All Around
TTITLE11=Shiver
TTITLE12=As You Do
TTITLE13=Slow
EXTD=
EXTT0=
EXTT1=
EXTT2=
EXTT3=
EXTT4=
EXTT5=
EXTT6=
EXTT7=
EXTT8=
EXTT9=
EXTT10=
EXTT11=
EXTT12=
EXTT13=
PLAYORDER=
